<svg width="118" height="29" viewBox="0 0 118 29" fill="none" xmlns="http://www.w3.org/2000/svg">
<path d="M9.85352 3.53809C11.0579 3.61035 12.0697 3.67057 12.8887 3.71875C13.7318 3.74284 14.4303 3.76693 14.9844 3.79102C15.6107 3.8151 16.1406 3.8151 16.5742 3.79102C17.0078 3.76693 17.598 3.70671 18.3447 3.61035C18.971 3.53809 19.8021 3.42969 20.8379 3.28516C21.8978 3.11654 23.2106 2.89974 24.7764 2.63477C24.2223 3.1888 23.7887 3.69466 23.4756 4.15234C23.1865 4.58594 22.9577 4.95931 22.7891 5.27246C22.5964 5.65788 22.4639 5.98307 22.3916 6.24805C22.3434 6.48893 22.3916 7.09115 22.5361 8.05469C22.6807 9.01823 22.8854 10.1624 23.1504 11.4873C23.4154 12.7881 23.7044 14.1852 24.0176 15.6787C24.3307 17.1481 24.6439 18.5332 24.957 19.834C25.2702 21.1107 25.5472 22.2067 25.7881 23.1221C26.0531 24.0133 26.2458 24.5433 26.3662 24.7119C26.7275 25.2178 26.9564 25.555 27.0527 25.7236C27.1491 25.8682 27.3177 26.0007 27.5586 26.1211C27.6549 26.1693 27.8115 26.2415 28.0283 26.3379C28.221 26.4342 28.474 26.5547 28.7871 26.6992C29.1243 26.8438 29.5459 27.0124 30.0518 27.2051C29.1123 27.2533 28.3053 27.2894 27.6309 27.3135C26.9564 27.3135 26.4023 27.3255 25.9688 27.3496C25.4629 27.3737 25.0293 27.3978 24.668 27.4219C24.3066 27.4219 23.873 27.446 23.3672 27.4941C22.9336 27.5423 22.3675 27.5905 21.6689 27.6387C20.9945 27.6868 20.1995 27.735 19.2842 27.7832C19.766 27.446 20.1514 27.1449 20.4404 26.8799C20.7536 26.5908 20.9945 26.3499 21.1631 26.1572C21.3558 25.9163 21.4883 25.6995 21.5605 25.5068C21.6087 25.29 21.6449 24.9648 21.6689 24.5312C21.693 24.1458 21.693 23.64 21.6689 23.0137C21.6449 22.3633 21.5846 21.5202 21.4883 20.4844L11.9854 21.46C11.7445 21.8695 11.5638 22.2308 11.4434 22.5439C11.3229 22.833 11.2386 23.0859 11.1904 23.3027C11.1182 23.5677 11.0941 23.7845 11.1182 23.9531C11.1663 24.1458 11.2507 24.3747 11.3711 24.6396C11.4915 24.8805 11.6602 25.1696 11.877 25.5068C12.1178 25.82 12.4671 26.1934 12.9248 26.627C12.3226 26.6029 11.7083 26.5908 11.082 26.5908C10.4557 26.5908 9.8776 26.6029 9.34766 26.627C8.72135 26.651 8.1071 26.6751 7.50488 26.6992C6.90267 26.7233 6.21615 26.7594 5.44531 26.8076C4.79492 26.8558 4.03613 26.916 3.16895 26.9883C2.27767 27.0365 1.32617 27.1087 0.314453 27.2051C0.940755 26.916 1.4707 26.627 1.9043 26.3379C2.33789 26.0247 2.69922 25.7357 2.98828 25.4707C3.32552 25.1816 3.61458 24.9046 3.85547 24.6396C4.02409 24.3988 4.36133 23.8447 4.86719 22.9775C5.37305 22.0863 5.93913 21.0384 6.56543 19.834C7.21582 18.6296 7.8903 17.3408 8.58887 15.9678C9.31152 14.5947 9.96191 13.306 10.54 12.1016C11.1182 10.873 11.5879 9.81315 11.9492 8.92188C12.3105 8.0306 12.4912 7.45247 12.4912 7.1875C12.443 6.87435 12.3226 6.52507 12.1299 6.13965C11.9613 5.80241 11.6963 5.41699 11.335 4.9834C10.9977 4.5498 10.5039 4.06803 9.85352 3.53809ZM21.0547 17.8105C20.9102 16.9674 20.7777 16.2448 20.6572 15.6426C20.5368 15.0163 20.4404 14.4984 20.3682 14.0889C20.2718 13.6071 20.1995 13.1855 20.1514 12.8242C20.0791 12.487 19.9948 12.0534 19.8984 11.5234C19.8021 11.0658 19.6816 10.4997 19.5371 9.8252C19.4167 9.12663 19.2601 8.29557 19.0674 7.33203C17.6943 10.0781 16.6224 12.21 15.8516 13.7275C15.1048 15.221 14.5628 16.3171 14.2256 17.0156C13.8161 17.8346 13.5872 18.3164 13.5391 18.4609L21.0547 17.8105ZM28.7148 2.63477C29.2689 2.7793 29.7747 2.8877 30.2324 2.95996C30.7142 3.00814 31.1237 3.04427 31.4609 3.06836C31.8704 3.09245 32.2438 3.10449 32.5811 3.10449C32.9183 3.10449 33.3398 3.0804 33.8457 3.03223C34.737 2.95996 36.0016 2.7793 37.6396 2.49023C37.3747 2.68294 37.1217 2.87565 36.8809 3.06836C36.6641 3.23698 36.4714 3.4056 36.3027 3.57422L35.7607 4.11621C35.4476 4.5498 35.1344 5.28451 34.8213 6.32031C34.5563 7.21159 34.2673 8.46419 33.9541 10.0781C33.665 11.6921 33.4001 13.8359 33.1592 16.5098C34.3395 15.3535 35.4476 14.4863 36.4834 13.9082C37.5433 13.306 38.4707 12.8724 39.2656 12.6074C40.2051 12.3184 41.0602 12.1618 41.8311 12.1377C42.8187 12.21 43.6738 12.4147 44.3965 12.752C45.1432 13.0651 45.7695 13.4505 46.2754 13.9082C46.8053 14.3418 47.2269 14.7995 47.54 15.2812C47.8773 15.7389 48.1302 16.1484 48.2988 16.5098C48.3952 16.7507 48.4674 17.1963 48.5156 17.8467C48.5879 18.473 48.5999 19.1956 48.5518 20.0146C48.5036 20.8337 48.3711 21.7008 48.1543 22.6162C47.9616 23.5075 47.6364 24.3385 47.1787 25.1094C46.7451 25.8561 46.167 26.4824 45.4443 26.9883C44.7458 27.4941 43.8665 27.7712 42.8066 27.8193C41.5781 27.8193 40.3857 27.6748 39.2295 27.3857C38.2419 27.1449 37.194 26.7233 36.0859 26.1211C35.002 25.4948 34.0745 24.6035 33.3037 23.4473C33.3037 23.7363 33.3037 24.0254 33.3037 24.3145C33.3037 24.5794 33.3158 24.8083 33.3398 25.001C33.3639 25.266 33.388 25.4948 33.4121 25.6875C33.4362 25.9043 33.4964 26.1331 33.5928 26.374C33.665 26.5667 33.7734 26.8076 33.918 27.0967C34.0866 27.3617 34.3034 27.6266 34.5684 27.8916C34.3034 27.8675 34.0384 27.8555 33.7734 27.8555C33.5085 27.8314 33.2435 27.8314 32.9785 27.8555C32.6895 27.8796 32.4004 27.9036 32.1113 27.9277C31.8223 27.9518 31.5212 27.988 31.208 28.0361C30.943 28.0843 30.6299 28.1445 30.2686 28.2168C29.9072 28.2891 29.5339 28.3734 29.1484 28.4697C29.2207 28.2529 29.2809 27.9398 29.3291 27.5303C29.3773 27.0967 29.4255 26.627 29.4736 26.1211C29.5459 25.5911 29.5941 25.0371 29.6182 24.459C29.6663 23.8809 29.7145 23.3027 29.7627 22.7246C29.859 21.3997 29.9434 19.9544 30.0156 18.3887C30.0879 15.9557 30.0999 13.6914 30.0518 11.5957C30.0277 10.7044 29.9795 9.80111 29.9072 8.88574C29.859 7.97038 29.7868 7.11523 29.6904 6.32031C29.5941 5.5013 29.4616 4.77865 29.293 4.15234C29.1484 3.50195 28.9557 2.99609 28.7148 2.63477ZM33.4121 20.2314C33.7975 20.93 34.207 21.5322 34.6406 22.0381C35.0742 22.5199 35.5078 22.9294 35.9414 23.2666C36.375 23.6038 36.7965 23.8688 37.2061 24.0615C37.6396 24.2542 38.0492 24.3988 38.4346 24.4951C39.3258 24.736 40.2051 24.7601 41.0723 24.5674C41.9395 24.3265 42.6139 23.8447 43.0957 23.1221C43.5775 22.3994 43.9508 21.5804 44.2158 20.665C44.3363 20.2314 44.4085 19.6774 44.4326 19.0029C44.4808 18.3285 44.4085 17.6781 44.2158 17.0518C44.0472 16.4014 43.734 15.8353 43.2764 15.3535C42.8187 14.8477 42.1562 14.5465 41.2891 14.4502C40.6868 14.4502 39.9883 14.6188 39.1934 14.9561C38.4948 15.2451 37.6637 15.7269 36.7002 16.4014C35.7367 17.0518 34.6406 18.0273 33.4121 19.3281V20.2314ZM55.5615 3.53809C56.766 3.61035 57.7777 3.67057 58.5967 3.71875C59.4398 3.74284 60.1383 3.76693 60.6924 3.79102C61.3187 3.8151 61.8486 3.8151 62.2822 3.79102C62.7158 3.76693 63.306 3.70671 64.0527 3.61035C64.679 3.53809 65.5101 3.42969 66.5459 3.28516C67.6058 3.11654 68.9186 2.89974 70.4844 2.63477C69.9303 3.1888 69.4967 3.69466 69.1836 4.15234C68.8945 4.58594 68.6657 4.95931 68.4971 5.27246C68.3044 5.65788 68.1719 5.98307 68.0996 6.24805C68.0514 6.48893 68.0996 7.09115 68.2441 8.05469C68.3887 9.01823 68.5934 10.1624 68.8584 11.4873C69.1234 12.7881 69.4124 14.1852 69.7256 15.6787C70.0387 17.1481 70.3519 18.5332 70.665 19.834C70.9782 21.1107 71.2552 22.2067 71.4961 23.1221C71.7611 24.0133 71.9538 24.5433 72.0742 24.7119C72.4355 25.2178 72.6644 25.555 72.7607 25.7236C72.8571 25.8682 73.0257 26.0007 73.2666 26.1211C73.363 26.1693 73.5195 26.2415 73.7363 26.3379C73.929 26.4342 74.182 26.5547 74.4951 26.6992C74.8324 26.8438 75.2539 27.0124 75.7598 27.2051C74.8203 27.2533 74.0133 27.2894 73.3389 27.3135C72.6644 27.3135 72.1104 27.3255 71.6768 27.3496C71.1709 27.3737 70.7373 27.3978 70.376 27.4219C70.0146 27.4219 69.5811 27.446 69.0752 27.4941C68.6416 27.5423 68.0755 27.5905 67.377 27.6387C66.7025 27.6868 65.9076 27.735 64.9922 27.7832C65.474 27.446 65.8594 27.1449 66.1484 26.8799C66.4616 26.5908 66.7025 26.3499 66.8711 26.1572C67.0638 25.9163 67.1963 25.6995 67.2686 25.5068C67.3167 25.29 67.3529 24.9648 67.377 24.5312C67.401 24.1458 67.401 23.64 67.377 23.0137C67.3529 22.3633 67.2926 21.5202 67.1963 20.4844L57.6934 21.46C57.4525 21.8695 57.2718 22.2308 57.1514 22.5439C57.0309 22.833 56.9466 23.0859 56.8984 23.3027C56.8262 23.5677 56.8021 23.7845 56.8262 23.9531C56.8743 24.1458 56.9587 24.3747 57.0791 24.6396C57.1995 24.8805 57.3682 25.1696 57.585 25.5068C57.8258 25.82 58.1751 26.1934 58.6328 26.627C58.0306 26.6029 57.4163 26.5908 56.79 26.5908C56.1637 26.5908 55.5856 26.6029 55.0557 26.627C54.4294 26.651 53.8151 26.6751 53.2129 26.6992C52.6107 26.7233 51.9242 26.7594 51.1533 26.8076C50.5029 26.8558 49.7441 26.916 48.877 26.9883C47.9857 27.0365 47.0342 27.1087 46.0225 27.2051C46.6488 26.916 47.1787 26.627 47.6123 26.3379C48.0459 26.0247 48.4072 25.7357 48.6963 25.4707C49.0335 25.1816 49.3226 24.9046 49.5635 24.6396C49.7321 24.3988 50.0693 23.8447 50.5752 22.9775C51.0811 22.0863 51.6471 21.0384 52.2734 19.834C52.9238 18.6296 53.5983 17.3408 54.2969 15.9678C55.0195 14.5947 55.6699 13.306 56.248 12.1016C56.8262 10.873 57.2959 9.81315 57.6572 8.92188C58.0186 8.0306 58.1992 7.45247 58.1992 7.1875C58.151 6.87435 58.0306 6.52507 57.8379 6.13965C57.6693 5.80241 57.4043 5.41699 57.043 4.9834C56.7057 4.5498 56.2119 4.06803 55.5615 3.53809ZM66.7627 17.8105C66.6182 16.9674 66.4857 16.2448 66.3652 15.6426C66.2448 15.0163 66.1484 14.4984 66.0762 14.0889C65.9798 13.6071 65.9076 13.1855 65.8594 12.8242C65.7871 12.487 65.7028 12.0534 65.6064 11.5234C65.5101 11.0658 65.3896 10.4997 65.2451 9.8252C65.1247 9.12663 64.9681 8.29557 64.7754 7.33203C63.4023 10.0781 62.3304 12.21 61.5596 13.7275C60.8128 15.221 60.2708 16.3171 59.9336 17.0156C59.5241 17.8346 59.2952 18.3164 59.2471 18.4609L66.7627 17.8105ZM72.5801 1.62305C73.3509 1.74349 74.0495 1.85189 74.6758 1.94824C75.3021 2.02051 75.8441 2.08073 76.3018 2.12891C76.8317 2.20117 77.3014 2.26139 77.7109 2.30957C78.2168 2.38184 78.9756 2.29753 79.9873 2.05664C80.999 1.79167 82.1071 1.55078 83.3115 1.33398C84.54 1.0931 85.7926 0.960612 87.0693 0.936523C88.346 0.888346 89.5143 1.11719 90.5742 1.62305C91.6341 2.12891 92.5013 2.63477 93.1758 3.14062C93.8503 3.64648 94.3802 4.18848 94.7656 4.7666C95.1751 5.32064 95.4642 5.91081 95.6328 6.53711C95.8014 7.16341 95.8978 7.84993 95.9219 8.59668C95.8978 9.70475 95.6328 10.7767 95.127 11.8125C94.9102 12.2461 94.6211 12.7038 94.2598 13.1855C93.9225 13.6432 93.501 14.0889 92.9951 14.5225C92.4893 14.9561 91.887 15.3656 91.1885 15.751C90.514 16.1364 89.7191 16.4736 88.8037 16.7627C89.695 17.0277 90.4297 17.3408 91.0078 17.7021C91.61 18.0635 92.0918 18.4007 92.4531 18.7139C92.8867 19.0993 93.2119 19.4727 93.4287 19.834C93.6937 20.3398 93.8743 20.7734 93.9707 21.1348C94.0671 21.4961 94.1273 21.8454 94.1514 22.1826C94.1995 22.4958 94.2598 22.821 94.332 23.1582C94.4043 23.4954 94.5609 23.8809 94.8018 24.3145C94.9945 24.6517 95.2233 25.001 95.4883 25.3623C95.7292 25.6755 96.0062 26.0127 96.3193 26.374C96.6566 26.7354 97.0661 27.0846 97.5479 27.4219C96.8734 27.446 96.2471 27.458 95.6689 27.458C95.1149 27.458 94.6331 27.458 94.2236 27.458C93.7419 27.458 93.2842 27.446 92.8506 27.4219C92.417 27.3978 91.875 27.3857 91.2246 27.3857C90.6706 27.3857 89.96 27.3857 89.0928 27.3857C88.2497 27.3857 87.2259 27.3978 86.0215 27.4219C86.5514 27.0124 86.985 26.6029 87.3223 26.1934C87.6595 25.7839 87.9245 25.4105 88.1172 25.0732C88.334 24.6878 88.4906 24.3145 88.5869 23.9531C88.7074 23.3027 88.7194 22.6283 88.623 21.9297C88.5508 21.3275 88.3581 20.665 88.0449 19.9424C87.7318 19.1956 87.2259 18.4489 86.5273 17.7021C85.8288 17.8226 85.2386 17.9189 84.7568 17.9912C84.2992 18.0394 83.9017 18.0876 83.5645 18.1357C83.179 18.1839 82.8659 18.2201 82.625 18.2441C82.4082 18.2682 82.1673 18.2923 81.9023 18.3164C81.6855 18.3405 81.4447 18.3766 81.1797 18.4248C80.9388 18.4489 80.71 18.485 80.4932 18.5332C80.445 19.569 80.445 20.4723 80.4932 21.2432C80.5413 21.9899 80.6016 22.6162 80.6738 23.1221C80.7702 23.7243 80.8786 24.2422 80.999 24.6758C81.1195 25.1094 81.2881 25.5309 81.5049 25.9404C81.6735 26.2777 81.8903 26.639 82.1553 27.0244C82.4202 27.3857 82.7214 27.6868 83.0586 27.9277C82.4323 27.9277 81.8301 27.9277 81.252 27.9277C80.6979 27.9277 80.1921 27.9157 79.7344 27.8916C79.2044 27.8916 78.6986 27.8796 78.2168 27.8555C77.735 27.8314 77.193 27.8193 76.5908 27.8193C76.085 27.8193 75.4827 27.8193 74.7842 27.8193C74.1097 27.8193 73.375 27.8314 72.5801 27.8555C73.2064 27.2051 73.7002 26.651 74.0615 26.1934C74.4229 25.7357 74.6999 25.3503 74.8926 25.0371C75.1094 24.6999 75.2419 24.4108 75.29 24.1699C75.3382 23.7845 75.3743 23.098 75.3984 22.1104C75.4466 21.0986 75.4827 19.9424 75.5068 18.6416C75.5309 17.3408 75.543 15.9798 75.543 14.5586C75.543 13.1374 75.5309 11.8125 75.5068 10.584C75.4827 9.33138 75.4587 8.25944 75.4346 7.36816C75.4105 6.47689 75.3864 5.91081 75.3623 5.66992C75.29 5.23633 75.1335 4.80273 74.8926 4.36914C74.6999 3.98372 74.4229 3.55013 74.0615 3.06836C73.7002 2.58659 73.2064 2.10482 72.5801 1.62305ZM86.2383 14.3418C86.4792 14.1973 86.6839 14.0527 86.8525 13.9082C87.0212 13.7637 87.1657 13.5348 87.2861 13.2217C87.4066 12.8844 87.5029 12.4147 87.5752 11.8125C87.6715 11.2103 87.7799 10.3913 87.9004 9.35547C87.9967 8.31966 87.9245 7.46452 87.6836 6.79004C87.4668 6.11556 87.1657 5.58561 86.7803 5.2002C86.4189 4.79069 86.0094 4.51367 85.5518 4.36914C85.1182 4.20052 84.7327 4.11621 84.3955 4.11621C83.721 4.11621 83.0586 4.32096 82.4082 4.73047C81.7578 5.13997 81.264 5.69401 80.9268 6.39258C80.8063 6.70573 80.6979 7.22363 80.6016 7.94629C80.5293 8.57259 80.4811 9.43978 80.457 10.5479C80.4329 11.6559 80.4691 13.1133 80.5654 14.9199C81.4808 15.0645 82.2878 15.1247 82.9863 15.1006C83.6849 15.0524 84.2751 14.9681 84.7568 14.8477C85.335 14.7272 85.8288 14.5586 86.2383 14.3418ZM96.1025 1.62305C97.7165 1.81576 99.1136 1.96029 100.294 2.05664C101.474 2.12891 102.45 2.18913 103.221 2.2373C104.112 2.28548 104.859 2.29753 105.461 2.27344C106.087 2.24935 106.942 2.18913 108.026 2.09277C108.942 2.02051 110.146 1.92415 111.64 1.80371C113.133 1.65918 115 1.46647 117.24 1.22559C117.264 1.77962 117.276 2.32161 117.276 2.85156C117.3 3.35742 117.325 3.80306 117.349 4.18848C117.373 4.64616 117.385 5.06771 117.385 5.45312C117.385 5.86263 117.361 6.38053 117.312 7.00684C117.264 7.53678 117.18 8.21126 117.06 9.03027C116.963 9.8252 116.807 10.7767 116.59 11.8848C116.253 10.584 115.927 9.53613 115.614 8.74121C115.301 7.9222 115.012 7.27181 114.747 6.79004C114.458 6.236 114.169 5.81445 113.88 5.52539C113.567 5.30859 113.193 5.12793 112.76 4.9834C112.374 4.86296 111.881 4.7666 111.278 4.69434C110.7 4.62207 110.014 4.63411 109.219 4.73047C109.098 7.91016 109.014 10.4876 108.966 12.4629C108.918 14.4382 108.882 15.9798 108.857 17.0879C108.833 18.4128 108.821 19.3643 108.821 19.9424C108.845 20.7614 108.978 21.5684 109.219 22.3633C109.411 23.0378 109.725 23.7363 110.158 24.459C110.592 25.1816 111.218 25.82 112.037 26.374H107.629C107.219 26.374 106.714 26.3981 106.111 26.4463C105.605 26.4945 104.955 26.5426 104.16 26.5908C103.389 26.639 102.486 26.7233 101.45 26.8438C101.812 26.2174 102.101 25.6514 102.317 25.1455C102.534 24.6396 102.703 24.2061 102.823 23.8447C102.968 23.4111 103.076 23.0257 103.148 22.6885C103.173 22.2067 103.233 21.2311 103.329 19.7617C103.353 19.1595 103.377 18.4128 103.401 17.5215C103.45 16.6302 103.498 15.5703 103.546 14.3418C103.618 13.1133 103.678 11.7041 103.727 10.1143C103.799 8.50033 103.871 6.68164 103.943 4.6582C103.51 4.53776 103.1 4.5498 102.715 4.69434C102.329 4.81478 101.992 4.97135 101.703 5.16406C101.366 5.40495 101.041 5.69401 100.728 6.03125C100.414 6.44076 100.065 6.9707 99.6797 7.62109C99.3424 8.17513 98.957 8.90983 98.5234 9.8252C98.0898 10.7165 97.596 11.8245 97.042 13.1494C96.9215 11.7523 96.8372 10.6081 96.7891 9.7168C96.7409 8.80143 96.7048 8.09082 96.6807 7.58496C96.6566 6.98275 96.6445 6.53711 96.6445 6.24805C96.6445 5.98307 96.6204 5.63379 96.5723 5.2002C96.5241 4.83887 96.4639 4.36914 96.3916 3.79102C96.3193 3.1888 96.223 2.46615 96.1025 1.62305Z" fill="#D9D9D9" fill-opacity="0.56"/>
</svg>
